# xmcd
#
# Track frame offsets:
#  150
#  22658
#  38541
#  55109
#  77767
#  92594
#  107301
#  120491
#  130416
#  143851
#  153201
#  165295
#  180818
#
# Disc length: 2722 seconds
#
# Revision: 3
# Processed by: cddbd v1.5.1PL0 Copyright (c) Steve Scherf et al.
# Submitted via: Collectorz.com Music Collector 6.9
#
DISCID=830aa00d
DTITLE=Jon Langford and the Pine Valley Cosmonauts - The Executioner's Last Songs, Vol 2
DYEAR=2003
DGENRE=Country
TTITLE0=Tim Rutili and S timms and R Gates and J Walston and J Langford - Gallows Pole
TTITLE1=Dave Alvin and Dean Schlabowske - Louis Collins
TTITLE2=Kurt Wagner - The Fall of Troy
TTITLE3=Otis Clay - Banks of the Ohio
TTITLE4=Skid Marks and Sally Timms - Homicide
TTITLE5=Kelly Hogan - Green Green Grass of Home
TTITLE6=Rico Bell - Death Row
TTITLE7=Lu edmonds and John Rice - Gulag Blues
TTITLE8=Chris Mills and Dean Schlabowske and Dave Alvin - Horses
TTITLE9=Diane Izzo and John Rice - Strange Fruit
TTITLE10=David Yow - One Dyin' and a Buryin'
TTITLE11=Jon Langford and Sally Timms - Delilah
TTITLE12=Charlotte Greig - Willie O'winsbury
EXTD=
EXTT0=
EXTT1=
EXTT2=
EXTT3=
EXTT4=
EXTT5=
EXTT6=
EXTT7=
EXTT8=
EXTT9=
EXTT10=
EXTT11=
EXTT12=
PLAYORDER=
